<svg width="500" height="500" viewBox="0 0 500 500" fill="none" xmlns="http://www.w3.org/2000/svg">
<path d="M189.65 228.65C193.158 231.379 197.364 233.064 201.786 233.513C206.207 233.962 210.666 233.157 214.651 231.189C218.636 229.222 221.987 226.171 224.319 222.388C226.65 218.604 227.869 214.24 227.836 209.796C227.802 205.352 226.518 201.007 224.129 197.259C221.74 193.511 218.344 190.511 214.33 188.604C210.316 186.697 205.845 185.958 201.431 186.474C197.016 186.99 192.837 188.739 189.37 191.52V191.52L184.19 187.52L176.48 189.93L177.36 182.22L170.86 177.17L163.16 179.57L164.04 171.86L158.45 167.52L153.75 168.98L154.29 164.28L151 161.72L143.62 162.44L142.62 173.78L181.28 203.83C180.079 208.332 180.232 213.088 181.721 217.503C183.21 221.918 185.968 225.795 189.65 228.65V228.65ZM217.82 220.58C216.997 221.638 215.879 222.429 214.607 222.852C213.335 223.276 211.966 223.312 210.674 222.958C209.381 222.603 208.222 221.873 207.344 220.86C206.466 219.847 205.908 218.597 205.74 217.267C205.572 215.937 205.803 214.587 206.402 213.388C207.001 212.189 207.943 211.194 209.107 210.53C210.272 209.866 211.607 209.562 212.944 209.656C214.281 209.75 215.56 210.239 216.62 211.06C218.038 212.166 218.961 213.788 219.185 215.572C219.41 217.356 218.919 219.157 217.82 220.58Z" fill="#EBEBEB"/>
<path d="M220.81 138.27C222.317 136.428 223.275 134.199 223.574 131.837C223.873 129.476 223.501 127.079 222.5 124.919C221.499 122.76 219.91 120.926 217.916 119.627C215.921 118.329 213.601 117.619 211.221 117.578C208.841 117.538 206.498 118.168 204.46 119.397C202.422 120.627 200.772 122.405 199.698 124.529C198.624 126.653 198.17 129.037 198.388 131.407C198.606 133.777 199.487 136.038 200.93 137.93L198.7 140.65L199.89 144.81L195.77 144.24L193 147.66L194.19 151.82L190.08 151.24L187.68 154.18L188.4 156.71L185.89 156.36L184.5 158.07L184.79 162.07L190.85 162.75L207.43 142.44C209.823 143.137 212.369 143.113 214.748 142.371C217.128 141.63 219.237 140.203 220.81 138.27V138.27ZM216.81 123.09C217.365 123.545 217.773 124.154 217.982 124.841C218.192 125.528 218.192 126.261 217.985 126.948C217.777 127.635 217.37 128.245 216.816 128.701C216.262 129.157 215.585 129.439 214.87 129.51C214.156 129.582 213.437 129.439 212.803 129.102C212.17 128.764 211.65 128.247 211.311 127.614C210.972 126.982 210.827 126.263 210.897 125.548C210.966 124.834 211.246 124.156 211.7 123.6C212.002 123.224 212.375 122.912 212.799 122.682C213.223 122.452 213.688 122.309 214.168 122.262C214.647 122.214 215.132 122.263 215.592 122.405C216.053 122.548 216.481 122.78 216.85 123.09H216.81Z" fill="#EBEBEB"/>
<path d="M167.32 52.37V125.75H61.91L58.12 52.88L167.32 52.37Z" fill="#E0E0E0"/>
<path d="M58.12 52.88L58.12 125.6H163.53V52.88H58.12Z" fill="white"/>
<path d="M164 126.1H57.62V52.38H164V126.1ZM58.6 125.1H163V53.38H58.62L58.6 125.1Z" fill="#E0E0E0"/>
<path d="M152.1 61.91H69.53V116.56H152.1V61.91Z" fill="white"/>
<path d="M152.11 61.91H151.7H150.52L146 62H129L69.56 62.12L69.8 61.88C69.8 78.58 69.8 97.08 69.8 116.53L69.54 116.27L152.12 116.33L151.91 116.53C151.91 99.9 151.99 86.27 152.02 76.77C152.02 72.02 152.02 68.32 152.07 65.77C152.07 64.51 152.07 63.55 152.07 62.88C152.07 62.21 152.07 61.88 152.07 61.88C152.07 61.88 152.07 62.2 152.07 62.88C152.07 63.56 152.07 64.49 152.07 65.73C152.07 68.26 152.07 71.96 152.07 76.73C152.07 86.26 152.14 99.94 152.18 116.62V116.83H151.98H69.4H69.14V116.56C69.14 97.11 69.14 78.61 69.14 61.91V61.67H69.38L128.98 61.79L145.98 61.86H150.47H151.62L152.11 61.91Z" fill="#E0E0E0"/>
<path d="M58.11 52.67C58.7612 52.99 59.3721 53.3861 59.93 53.85C61.01 54.63 62.47 55.73 64.06 57C65.65 58.27 67.06 59.47 68.06 60.37C68.625 60.8189 69.1322 61.3362 69.57 61.91C69.47 62.02 66.94 59.91 63.77 57.41C61.7865 55.9493 59.8961 54.3663 58.11 52.67V52.67Z" fill="#E0E0E0"/>
<path d="M163.52 52.88C161.792 54.5801 159.948 56.1572 158 57.6C156.146 59.1716 154.185 60.6118 152.13 61.91C153.864 60.2092 155.715 58.632 157.67 57.19C159.516 55.6177 161.471 54.1774 163.52 52.88V52.88Z" fill="#E0E0E0"/>
<path d="M163.44 125.61L151.69 116.08Z" fill="white"/>
<path d="M151.69 116.08C153.79 117.464 155.795 118.987 157.69 120.64C159.702 122.178 161.61 123.848 163.4 125.64C161.298 124.259 159.293 122.736 157.4 121.08C155.38 119.552 153.471 117.881 151.69 116.08Z" fill="#E0E0E0"/>
<path d="M58.11 125.6C59.8271 123.915 61.6617 122.355 63.6 120.93C65.4348 119.373 67.3762 117.946 69.41 116.66C67.7023 118.354 65.8706 119.919 63.93 121.34C62.0935 122.896 60.1486 124.32 58.11 125.6V125.6Z" fill="#E0E0E0"/>
<path d="M86.3 78.94V97.24H138.26V78.94H86.3Z" fill="#E0E0E0"/>
<path d="M429 469.2C429 469.34 343.12 469.46 237.2 469.46C131.28 469.46 45.37 469.34 45.37 469.2C45.37 469.06 131.24 468.94 237.2 468.94C343.16 468.94 429 469.06 429 469.2Z" fill="#263238"/>
<path d="M348.79 433L373.54 468.99L382.39 469.2L366.17 432.19L348.79 433Z" fill="#263238"/>
<path d="M87.62 434.83L74.58 468.83H81.1L103.87 434.98L87.62 434.83Z" fill="#263238"/>
<path d="M82 311.3L83 355.3C83.0637 358.294 84.2807 361.147 86.3972 363.266C88.5137 365.384 91.3663 366.604 94.36 366.67L340.55 372.15C342.099 372.185 343.639 371.909 345.081 371.34C346.522 370.772 347.835 369.92 348.942 368.837C350.05 367.754 350.93 366.46 351.531 365.031C352.131 363.603 352.44 362.069 352.44 360.52V307.52C352.437 299.965 349.702 292.665 344.74 286.968C339.778 281.271 332.923 277.56 325.44 276.52C280.37 270.32 187.44 260.79 112.29 274.33C103.664 275.872 95.8727 280.444 90.3192 287.223C84.7658 294.001 81.8155 302.539 82 311.3Z" fill="#2B66FF"/>
<path d="M80.92 326.67C80.92 326.67 60.64 317.28 56.49 326.67C52.34 336.06 57 347.58 61.56 354C66.12 360.42 66.1 439.74 66.1 439.74L373.68 436.45L377.32 360.18C377.32 360.18 392.07 342.01 391.15 334.18C390.23 326.35 377.78 314.95 363.49 326.64C349.2 338.33 345.49 362.76 345.49 362.76L100.26 364.61C100.26 364.61 101.1 330.3 80.92 326.67Z" fill="#2B66FF"/>
<path d="M342.38 378C342.38 378.14 287.89 378.26 220.69 378.26C153.49 378.26 99 378.17 99 378C99 377.83 153.47 377.74 220.69 377.74C287.91 377.74 342.38 377.88 342.38 378Z" fill="#263238"/>
<path d="M99 411.6C98.9871 411.521 98.9871 411.439 99 411.36C99 411.17 99 410.93 99 410.65C99 410.023 98.98 409.113 98.94 407.92C98.94 405.51 98.94 402.1 98.94 397.92C98.94 389.46 99 377.77 98.61 364.92C98.5338 358.869 98.0662 352.83 97.21 346.84C97.03 346.18 96.85 345.52 96.68 344.84C96.51 344.16 96.18 343.59 95.92 342.98C95.39 341.77 94.85 340.61 94.26 339.52C93.1948 337.491 91.9427 335.566 90.52 333.77C89.3321 332.299 87.9912 330.958 86.52 329.77C85.4025 328.881 84.2 328.104 82.93 327.45C81.8235 326.94 80.6921 326.486 79.54 326.09H79.77L80.46 326.28C81.3426 326.533 82.1996 326.868 83.02 327.28C84.3262 327.9 85.5603 328.661 86.7 329.55C88.2023 330.73 89.5705 332.071 90.78 333.55C92.2419 335.349 93.5278 337.285 94.62 339.33C95.23 340.43 95.78 341.59 96.32 342.81C96.59 343.42 96.84 344.05 97.09 344.68L97.66 346.68C98.5521 352.697 99.0366 358.768 99.11 364.85C99.5 377.75 99.37 389.44 99.29 397.9C99.23 402.09 99.18 405.5 99.15 407.9C99.15 409.05 99.15 409.96 99.15 410.63V411.33C99 411.51 99 411.6 99 411.6Z" fill="#263238"/>
<path d="M78.53 344.37C78.7688 344.207 79.051 344.12 79.34 344.12C80.1439 344.059 80.9438 344.282 81.6 344.75C82.0614 345.073 82.4386 345.501 82.7 346C82.9989 346.586 83.1006 347.252 82.99 347.9C82.8811 348.646 82.5485 349.342 82.0362 349.895C81.5238 350.449 80.8557 350.834 80.12 351C79.3787 351.106 78.6226 350.991 77.9465 350.669C77.2704 350.347 76.7046 349.833 76.32 349.19C75.9831 348.629 75.8131 347.984 75.83 347.33C75.866 346.642 76.0864 345.976 76.4682 345.403C76.85 344.829 77.3791 344.369 78 344.07C78.255 343.932 78.5402 343.86 78.83 343.86C78.83 343.91 78.54 343.98 78.09 344.25C77.4611 344.639 76.9577 345.202 76.64 345.87C76.4024 346.339 76.2887 346.861 76.3097 347.386C76.3307 347.911 76.4857 348.422 76.76 348.87C77.1026 349.419 77.5961 349.857 78.1815 350.132C78.7668 350.406 79.4191 350.507 80.06 350.42C80.6868 350.273 81.2569 349.946 81.6995 349.478C82.1421 349.011 82.4378 348.424 82.55 347.79C82.6382 347.268 82.578 346.731 82.3765 346.242C82.175 345.752 81.8401 345.329 81.41 345.02C80.8401 344.566 80.1382 344.31 79.41 344.29C78.83 344.32 78.54 344.42 78.53 344.37Z" fill="#263238"/>
<path d="M79.92 364.11C79.3369 363.677 78.8613 363.116 78.53 362.47C77.6171 360.966 77.1244 359.245 77.1033 357.486C77.0822 355.727 77.5334 353.995 78.41 352.47C78.7289 351.816 79.1902 351.242 79.76 350.79C79.83 350.85 79.31 351.48 78.76 352.64C78.0096 354.142 77.6258 355.801 77.64 357.48C77.6675 359.161 78.0888 360.812 78.87 362.3C79.45 363.44 80 364.06 79.92 364.11Z" fill="#263238"/>
<path d="M76.7 334.42C76.6456 334.928 76.5452 335.43 76.4 335.92C75.9612 338.313 76.486 340.782 77.86 342.79C78.1841 343.183 78.4814 343.597 78.75 344.03C78.75 344.03 78.19 343.75 77.56 343.03C76.7486 342.039 76.1841 340.87 75.9129 339.618C75.6417 338.366 75.6715 337.068 76 335.83C76.1119 335.309 76.3525 334.824 76.7 334.42Z" fill="#263238"/>
<path d="M70.71 345.48C70.83 345.38 71.76 346.32 73.18 347.05C74.6 347.78 75.89 348.05 75.87 348.17C74.8461 348.301 73.8087 348.068 72.94 347.51C71.984 347.112 71.1957 346.395 70.71 345.48V345.48Z" fill="#263238"/>
<path d="M374.86 411.6C374.86 411.74 305.49 411.86 219.92 411.86C134.35 411.86 65 411.74 65 411.6C65 411.46 134.36 411.34 220 411.34C305.64 411.34 374.86 411.45 374.86 411.6Z" fill="#263238"/>
<path d="M341.31 363.05C341.46 363.05 341.57 373.91 341.57 387.3C341.57 400.69 341.46 411.57 341.31 411.57C341.16 411.57 341.05 400.71 341.05 387.3C341.05 373.89 341.17 363.05 341.31 363.05Z" fill="#263238"/>
<path d="M238.6 279.14H238.12L236.72 279.19L231.35 279.34L211.57 279.8L146.33 281.11C139.96 281.26 133.73 281.24 127.75 281.64C121.992 281.888 116.295 282.927 110.82 284.73C105.881 286.388 101.462 289.307 98 293.2C96.4296 294.959 95.0858 296.907 94 299C93.0097 300.925 92.1899 302.932 91.55 305C90.5222 308.592 89.8523 312.276 89.55 316C89.24 319.3 89.21 322.15 89.19 324.49C89.17 326.83 89.19 328.63 89.26 329.86C89.26 330.46 89.26 330.92 89.26 331.26C89.26 331.6 89.26 331.74 89.26 331.74C89.26 331.74 89.26 331.58 89.26 331.26C89.26 330.94 89.26 330.46 89.18 329.86C89.12 328.64 89.04 326.86 89.02 324.49C89 322.12 89.02 319.29 89.29 315.97C89.5844 312.209 90.2544 308.487 91.29 304.86C91.9232 302.756 92.7396 300.711 93.73 298.75C94.8064 296.615 96.1506 294.625 97.73 292.83C101.239 288.878 105.721 285.914 110.73 284.23C116.223 282.396 121.945 281.336 127.73 281.08C133.73 280.68 139.97 280.69 146.34 280.54L211.59 279.38L231.36 279.09L236.74 279.03H238.14L238.6 279.14Z" fill="#263238"/>
<path d="M159.86 313.4C159.86 313.4 159.53 313.56 159.02 313.95C158.299 314.503 157.759 315.259 157.47 316.12C157.237 316.734 157.165 317.397 157.261 318.047C157.358 318.696 157.619 319.31 158.02 319.83C158.472 320.514 159.124 321.043 159.886 321.344C160.649 321.646 161.486 321.706 162.283 321.516C163.081 321.326 163.801 320.896 164.346 320.283C164.891 319.67 165.235 318.905 165.33 318.09C165.452 317.444 165.408 316.777 165.201 316.153C164.995 315.528 164.633 314.966 164.15 314.52C163.502 313.886 162.681 313.459 161.79 313.29C161.16 313.18 160.79 313.22 160.79 313.18C161.11 313.062 161.455 313.031 161.79 313.09C162.605 313.184 163.382 313.491 164.04 313.981C164.699 314.471 165.216 315.126 165.54 315.88C165.835 316.609 165.914 317.407 165.77 318.18C165.641 319.075 165.246 319.911 164.636 320.578C164.026 321.246 163.229 321.714 162.349 321.924C161.47 322.133 160.547 322.073 159.702 321.751C158.857 321.429 158.128 320.861 157.61 320.12C157.135 319.496 156.848 318.751 156.78 317.97C156.735 317.289 156.841 316.606 157.09 315.97C157.431 315.062 158.055 314.287 158.87 313.76C159.162 313.554 159.504 313.429 159.86 313.4Z" fill="#263238"/>
<path d="M155.65 339.31C155.269 338.347 155.014 337.338 154.89 336.31C154.402 333.868 154.457 331.349 155.05 328.93C155.691 326.48 157.229 324.36 159.36 322.99C160.004 322.591 160.711 322.304 161.45 322.14C161.715 322.057 161.994 322.03 162.27 322.06C161.318 322.365 160.405 322.782 159.55 323.3C157.58 324.693 156.163 326.736 155.55 329.07C154.986 331.421 154.884 333.86 155.25 336.25C155.49 338.15 155.73 339.29 155.65 339.31Z" fill="#263238"/>
<path d="M159.29 298C158.759 298.705 158.268 299.44 157.82 300.2C156.804 302.071 156.505 304.249 156.978 306.325C157.451 308.401 158.664 310.233 160.39 311.48C161.125 311.976 161.89 312.427 162.68 312.83C162.432 312.829 162.187 312.778 161.96 312.68C161.33 312.458 160.732 312.155 160.18 311.78C158.293 310.547 156.958 308.631 156.456 306.433C155.955 304.236 156.325 301.93 157.49 300C157.826 299.422 158.236 298.891 158.71 298.42C159.05 298.07 159.27 297.93 159.29 298Z" fill="#263238"/>
<path d="M158.37 318C156.542 318.307 154.733 318.714 152.95 319.22C151.223 319.896 149.534 320.664 147.89 321.52C150.78 319.006 154.548 317.74 158.37 318V318Z" fill="#263238"/>
<g opacity="0.3">
<path d="M126.06 378.94C135.769 386.38 147.857 390.024 160.06 389.19C157.527 400.943 155 412.7 152.48 424.46C151.81 427.59 151.18 431.08 152.82 433.84C155.12 437.71 160.47 438.09 164.97 438.03C169.97 437.96 175.19 437.84 179.63 435.52C185.92 432.24 189.3 425.28 191.74 418.62C194.18 411.96 196.29 404.82 201.31 399.81C207.073 406.375 214.873 410.816 223.46 412.42C225.96 412.88 228.8 413.02 230.8 411.42C232.8 409.82 233.37 407 232.86 404.52C232.195 402.076 231.086 399.774 229.59 397.73L214.95 375.03C212.95 371.96 210.81 368.72 207.46 367.26C204.83 366.11 201.85 366.26 198.99 366.39C175.089 367.782 151.366 371.367 128.12 377.1" fill="black"/>
</g>
<g opacity="0.3">
<path d="M204.28 266.4C198.36 282.04 176.28 285.63 168.49 300.4C160.82 315.04 170.33 334.4 162.43 348.96C159.5 354.34 154.43 358.35 151.61 363.77C149.69 367.41 148.7 371.77 145.61 374.46C141.99 377.61 136.38 377.55 132.03 375.51C127.68 373.47 124.34 369.81 121.24 366.14C115.44 359.26 109.99 351.82 107.24 343.23C102.58 328.46 106.86 311.75 116.24 299.41C125.62 287.07 139.51 278.74 154.18 273.75C168.85 268.76 184.37 266.88 199.8 265.43" fill="black"/>
</g>
<path d="M133.18 225.27C135.421 221.777 138.52 218.916 142.18 216.96C145.866 214.998 150.176 214.564 154.18 215.75C156.147 216.374 157.919 217.499 159.321 219.013C160.724 220.528 161.709 222.38 162.18 224.39C162.81 227.6 161.95 231.18 163.61 234C165.51 237.24 170.1 238.26 171.72 241.66C172.146 242.713 172.323 243.85 172.238 244.982C172.153 246.115 171.808 247.212 171.23 248.19C170.064 250.137 168.58 251.874 166.84 253.33C167.888 253.986 168.815 254.819 169.58 255.79C169.96 256.279 170.212 256.856 170.313 257.467C170.414 258.078 170.362 258.704 170.16 259.29C169.508 260.448 168.433 261.308 167.16 261.69C161.573 264.045 155.397 264.625 149.47 263.35C147.89 263.01 146.08 262.58 144.78 263.54" fill="#263238"/>
<path d="M173.21 237.14L170 246.93L191.86 259.34L169.86 260.05L171.5 277.88L213.85 267.48C213.85 267.48 216.39 250.21 173.21 237.14L170.21 236.42C169.669 236.293 169.167 236.036 168.747 235.672C168.327 235.308 168.002 234.848 167.8 234.33V234.33C167.457 233.488 166.816 232.801 166 232.4L162.39 230.52V233.38L164.39 235.71L164.07 241.24C163.986 242.424 164.326 243.6 165.03 244.556C165.733 245.513 166.754 246.188 167.91 246.46L169.91 246.93" fill="#B78876"/>
<path d="M125.32 272.54C124.45 272.54 116.38 274.54 111.76 280.38C107.14 286.22 100.46 308.32 100.46 308.32L117.46 311.26L124.8 329.69C124.8 329.69 168.25 324 165.94 321.69C163.707 319.635 161.371 317.696 158.94 315.88L168.94 282.57L180.94 276.09L176.89 259.45L152.72 262.72L125.32 272.54Z" fill="#FAFAFA"/>
<path d="M166.86 290.27C166.86 290.41 153.31 290.53 136.61 290.53C119.91 290.53 106.35 290.41 106.35 290.27C106.35 290.13 119.9 290.01 136.61 290.01C153.32 290.01 166.86 290.13 166.86 290.27Z" fill="#2B66FF"/>
<path d="M164.15 300.06C164.15 300.2 150.6 300.32 133.9 300.32C117.2 300.32 103.64 300.2 103.64 300.06C103.64 299.92 117.18 299.8 133.9 299.8C150.62 299.8 164.15 299.92 164.15 300.06Z" fill="#2B66FF"/>
<path d="M164.15 310.63C164.15 310.78 153.89 310.9 141.23 310.9C128.57 310.9 118.32 310.78 118.32 310.63C118.32 310.48 128.58 310.37 141.23 310.37C153.88 310.37 164.15 310.49 164.15 310.63Z" fill="#2B66FF"/>
<path d="M167.66 320.82C167.66 320.96 157.4 321.08 144.75 321.08C132.1 321.08 121.84 320.96 121.84 320.82C121.84 320.68 132.09 320.56 144.75 320.56C157.41 320.56 167.66 320.67 167.66 320.82Z" fill="#2B66FF"/>
<path d="M178.51 277.1C178.51 277.25 171.73 277.36 163.38 277.36C155.03 277.36 148.24 277.25 148.24 277.1C148.24 276.95 155.01 276.84 163.38 276.84C171.75 276.84 178.51 277 178.51 277.1Z" fill="#2B66FF"/>
<path d="M179.61 266.72C179.61 266.87 172.86 267.14 164.54 267.33C156.22 267.52 149.45 267.57 149.45 267.43C149.45 267.29 156.19 267.01 164.52 266.81C172.85 266.61 179.61 266.58 179.61 266.72Z" fill="#2B66FF"/>
<path d="M121 295.35C120.628 298.108 120.084 300.84 119.37 303.53C118.826 306.261 118.115 308.956 117.24 311.6C117.612 308.843 118.153 306.111 118.86 303.42C119.399 300.687 120.114 297.991 121 295.35V295.35Z" fill="#263238"/>
<path d="M168.3 420.21L155.64 460.14L170.9 461.68L185.24 426.98L168.3 420.21Z" fill="#B78876"/>
<path d="M179.47 446.14L172.2 464.14C172.2 464.14 188.08 477.59 187.06 481.05L151.6 468.24L161.77 439.68L179.47 446.14Z" fill="#455A64"/>
<path d="M161.79 458.66C161.411 458.64 161.039 458.761 160.743 458.999C160.448 459.237 160.251 459.576 160.19 459.95C160.155 460.327 160.267 460.704 160.501 461.001C160.735 461.299 161.075 461.495 161.45 461.55C161.851 461.57 162.245 461.441 162.557 461.188C162.869 460.935 163.076 460.576 163.14 460.18C163.14 459.42 162.39 458.55 161.64 458.66" fill="#E0E0E0"/>
<path d="M151.6 468.24L152.74 465.4L186.32 478.78C186.32 478.78 187.65 480.03 187.06 481.08L151.6 468.24Z" fill="#E0E0E0"/>
<path d="M172.84 464.2C172.77 464.37 171.84 464.14 170.84 464.38C169.84 464.62 169.07 465.2 168.94 465.07C168.81 464.94 169.42 464.07 170.7 463.76C171.98 463.45 172.93 464.05 172.84 464.2Z" fill="#263238"/>
<path d="M176 467.08C176 467.27 175.12 467.29 174.27 467.81C173.42 468.33 173 469 172.8 469C172.6 469 172.87 467.91 173.94 467.29C175.01 466.67 176.06 466.92 176 467.08Z" fill="#263238"/>
<path d="M176.5 472.3C176.33 472.3 176.4 471.3 177.19 470.54C177.98 469.78 178.93 469.67 178.95 469.84C178.97 470.01 178.28 470.34 177.65 470.99C177.02 471.64 176.68 472.35 176.5 472.3Z" fill="#263238"/>
<path d="M174 459.91C173.87 460.04 173.16 459.51 172.16 459.22C171.16 458.93 170.28 458.97 170.24 458.79C170.2 458.61 171.17 458.25 172.34 458.61C173.51 458.97 174.17 459.8 174 459.91Z" fill="#263238"/>
<path d="M175.44 456.24C174.803 456.185 174.192 455.961 173.67 455.59C173.069 455.246 172.514 454.826 172.02 454.34C171.718 454.061 171.441 453.756 171.19 453.43C171.032 453.248 170.904 453.042 170.81 452.82C170.74 452.656 170.727 452.474 170.772 452.302C170.817 452.13 170.919 451.978 171.06 451.87C171.19 451.78 171.339 451.723 171.496 451.702C171.652 451.681 171.811 451.698 171.96 451.75C172.186 451.833 172.401 451.944 172.6 452.08C172.956 452.309 173.291 452.57 173.6 452.86C174.101 453.348 174.523 453.912 174.85 454.53C175.208 455.068 175.389 455.704 175.37 456.35C175.27 456.35 175.07 455.69 174.46 454.76C174.106 454.22 173.682 453.729 173.2 453.3C172.92 453.041 172.615 452.81 172.29 452.61C171.95 452.38 171.63 452.26 171.48 452.39C171.33 452.52 171.41 452.47 171.48 452.6C171.558 452.761 171.656 452.912 171.77 453.05C172.001 453.356 172.248 453.65 172.51 453.93C172.966 454.398 173.461 454.827 173.99 455.21C174.497 455.519 174.981 455.863 175.44 456.24V456.24Z" fill="#263238"/>
<path d="M175.12 456.41C174.968 455.779 175.024 455.116 175.28 454.52C175.609 453.449 176.229 452.49 177.07 451.75C177.25 451.551 177.477 451.402 177.731 451.316C177.985 451.231 178.257 451.211 178.52 451.26C178.677 451.323 178.814 451.428 178.915 451.564C179.015 451.7 179.076 451.861 179.09 452.03C179.108 452.272 179.087 452.515 179.03 452.75C178.949 453.166 178.804 453.568 178.6 453.94C178.265 454.571 177.776 455.107 177.18 455.5C176.18 456.17 175.35 456.12 175.36 456.05C175.895 455.779 176.412 455.475 176.91 455.14C177.403 454.741 177.802 454.24 178.08 453.67C178.236 453.353 178.35 453.017 178.42 452.67C178.5 452.28 178.47 451.92 178.31 451.91C178.15 451.9 177.73 452.02 177.48 452.27C177.192 452.511 176.928 452.779 176.69 453.07C176.284 453.573 175.948 454.128 175.69 454.72C175.28 455.7 175.23 456.42 175.12 456.41Z" fill="#263238"/>
<path d="M216.35 382.62L235.25 415.47L250.71 405.55L231.73 372.2L216.35 382.62Z" fill="#B78876"/>
<path d="M245.37 396.16L255.14 413C255.14 413 275.5 408.72 277.61 411.65L245.69 431.75L229.4 406.16L245.37 396.16Z" fill="#455A64"/>
<path d="M244.39 417.81C244.136 418.091 243.996 418.456 243.996 418.835C243.996 419.214 244.136 419.579 244.39 419.86C244.663 420.11 245.02 420.249 245.39 420.249C245.76 420.249 246.117 420.11 246.39 419.86C246.652 419.555 246.792 419.163 246.783 418.76C246.774 418.358 246.616 417.973 246.34 417.68C246.022 417.442 245.625 417.335 245.23 417.382C244.836 417.428 244.474 417.625 244.22 417.93" fill="#E0E0E0"/>
<path d="M245.69 431.73L244.15 429.09L275.33 410.81C275.33 410.81 277.14 410.53 277.61 411.63L245.69 431.73Z" fill="#E0E0E0"/>
<path d="M255.55 412.49C255.64 412.65 254.91 413.21 254.46 414.19C254.01 415.17 254.01 416.09 253.83 416.12C253.65 416.15 253.31 415.12 253.83 413.92C254.35 412.72 255.49 412.32 255.55 412.49Z" fill="#263238"/>
<path d="M259.77 411.76C259.9 411.89 259.39 412.58 259.28 413.58C259.17 414.58 259.45 415.36 259.28 415.45C259.11 415.54 258.47 414.73 258.63 413.45C258.79 412.17 259.67 411.62 259.77 411.76Z" fill="#263238"/>
<path d="M264.2 414.57C264.07 414.7 263.37 414.06 263.2 412.95C263.03 411.84 263.58 411.05 263.73 411.13C263.88 411.21 263.73 411.96 263.84 412.87C263.95 413.78 264.34 414.46 264.2 414.57Z" fill="#263238"/>
<path d="M252.9 408.9C252.9 409.09 252.07 409.32 251.23 409.9C250.39 410.48 249.88 411.22 249.71 411.14C249.54 411.06 249.86 410.08 250.86 409.37C251.86 408.66 252.9 408.73 252.9 408.9Z" fill="#263238"/>
<path d="M250.87 405.55C250.87 405.61 250.36 406.1 249.27 406.55C248.626 406.804 247.955 406.985 247.27 407.09C246.862 407.141 246.451 407.171 246.04 407.18C245.797 407.189 245.555 407.162 245.32 407.1C245.149 407.054 244.999 406.952 244.892 406.811C244.785 406.67 244.728 406.497 244.73 406.32C244.738 406.161 244.784 406.007 244.864 405.869C244.944 405.732 245.056 405.616 245.19 405.53C245.393 405.406 245.612 405.308 245.84 405.24C246.897 404.877 248.03 404.791 249.13 404.99C250.31 405.21 250.93 405.64 250.89 405.7C250.85 405.76 250.19 405.53 249.08 405.44C248.432 405.392 247.78 405.426 247.14 405.54C246.769 405.606 246.405 405.703 246.05 405.83C245.65 405.96 245.36 406.14 245.37 406.34C245.38 406.54 245.37 406.44 245.52 406.5C245.694 406.54 245.872 406.557 246.05 406.55C247.086 406.564 248.118 406.419 249.11 406.12C249.682 405.887 250.27 405.696 250.87 405.55V405.55Z" fill="#263238"/>
<path d="M250.81 405.9C250.81 405.96 250.11 405.59 249.41 404.62C249.009 404.046 248.711 403.407 248.53 402.73C248.422 402.331 248.352 401.922 248.32 401.51C248.275 401.244 248.299 400.971 248.39 400.717C248.481 400.463 248.636 400.237 248.84 400.06C248.981 399.971 249.144 399.924 249.31 399.924C249.476 399.924 249.639 399.971 249.78 400.06C249.982 400.194 250.163 400.356 250.32 400.54C250.595 400.867 250.824 401.23 251 401.62C251.284 402.274 251.405 402.989 251.35 403.7C251.25 404.92 250.72 405.52 250.67 405.47C250.781 404.882 250.857 404.287 250.9 403.69C250.887 403.059 250.737 402.438 250.46 401.87C250.301 401.539 250.096 401.232 249.85 400.96C249.59 400.66 249.29 400.46 249.18 400.58C249.08 400.699 249.008 400.839 248.968 400.989C248.928 401.14 248.922 401.297 248.95 401.45C248.968 401.827 249.018 402.202 249.1 402.57C249.247 403.197 249.482 403.8 249.8 404.36C250.34 405.34 250.88 405.82 250.81 405.9Z" fill="#263238"/>
<path d="M160.09 378L197.21 352.76L220.62 398.33L241.9 386.8C241.9 386.8 217.39 327 208.59 325.1C203.66 324.02 147.12 334.81 147.12 334.81L140.8 331.64L124.8 329.69L123.8 332.28C121.007 339.352 119.723 346.93 120.029 354.528C120.336 362.126 122.226 369.576 125.58 376.4L126.36 377.99L160.09 378Z" fill="#263238"/>
<path d="M147.06 346.42C147.34 347.67 178.06 376.42 178.06 376.42L160.36 435.91L186.78 440.96L213.31 369.3L164.82 321.73L142.63 331L147.06 346.42Z" fill="#263238"/>
<path d="M197.21 352.75C197.29 352.87 189.04 358.61 178.8 365.58C168.56 372.55 160.18 378.1 160.09 378C160 377.9 168.25 372.13 178.5 365.16C188.75 358.19 197.12 352.63 197.21 352.75Z" fill="#455A64"/>
<path d="M216.26 389.83C215.918 389.402 215.617 388.944 215.36 388.46C214.81 387.56 214.05 386.23 213.12 384.59C211.27 381.3 208.81 376.7 206.21 371.59C203.61 366.48 201.31 361.77 199.7 358.36C198.89 356.65 198.25 355.26 197.82 354.3C197.567 353.815 197.363 353.305 197.21 352.78C197.512 353.236 197.779 353.714 198.01 354.21L200.01 358.21C201.75 361.66 204.08 366.27 206.65 371.38C209.22 376.49 211.65 381.13 213.42 384.46C214.27 386.07 214.98 387.4 215.52 388.41C215.803 388.864 216.05 389.338 216.26 389.83V389.83Z" fill="#455A64"/>
<path d="M183.57 365.78C182.781 367.973 181.832 370.106 180.73 372.16C179.779 374.285 178.672 376.337 177.42 378.3C179.157 373.98 181.212 369.795 183.57 365.78V365.78Z" fill="#455A64"/>
<path d="M100.46 308.32L94.46 330.48C93.6855 333.346 94.0436 336.401 95.46 339.01V339.01C96.6685 341.253 98.5809 343.037 100.903 344.087C103.225 345.137 105.827 345.395 108.31 344.82L155.86 333.11L150.86 323.23L113.4 326.48L117.4 311.26L100.46 308.32Z" fill="#B78876"/>
<path d="M121.55 341.95L122.17 338.73L147.94 334.1L155.43 294.37L203.29 288.67L195.25 331.08L121.55 341.95Z" fill="#455A64"/>
<path d="M176.92 315.77C176.37 315.746 175.84 315.554 175.402 315.22C174.964 314.887 174.638 314.427 174.469 313.903C174.3 313.379 174.295 312.816 174.454 312.289C174.614 311.762 174.932 311.296 175.364 310.955C175.796 310.613 176.322 310.412 176.871 310.378C177.421 310.344 177.968 310.479 178.439 310.764C178.91 311.05 179.282 311.473 179.505 311.976C179.729 312.479 179.793 313.039 179.69 313.58C179.61 314.236 179.274 314.834 178.755 315.245C178.237 315.655 177.577 315.843 176.92 315.77V315.77Z" fill="#EBEBEB"/>
<path d="M128.55 228L128.64 230.87L129.72 273.87C129.85 278.87 134.24 282.73 139.58 282.55C144.98 282.38 149.32 278.15 149.28 273.1C149.23 267.81 149.28 262.23 149.28 262.23C149.28 262.23 156.09 261.02 157.4 252.1C158.05 247.67 157.74 240.41 157.3 234.48C157.206 233.215 156.857 231.983 156.274 230.856C155.692 229.73 154.887 228.733 153.909 227.926C152.931 227.119 151.799 226.518 150.583 226.159C149.366 225.801 148.09 225.692 146.83 225.84L128.55 228Z" fill="#B78876"/>
<path d="M153.85 239.47C153.856 239.768 153.745 240.057 153.542 240.275C153.338 240.494 153.058 240.624 152.76 240.64C152.617 240.652 152.472 240.636 152.336 240.592C152.199 240.549 152.072 240.478 151.962 240.386C151.852 240.293 151.762 240.179 151.696 240.051C151.631 239.923 151.591 239.783 151.58 239.64C151.574 239.343 151.683 239.056 151.885 238.838C152.086 238.62 152.364 238.488 152.66 238.47C152.95 238.445 153.239 238.536 153.462 238.724C153.685 238.911 153.825 239.18 153.85 239.47Z" fill="#263238"/>
<path d="M155.77 238.31C155.63 238.46 154.77 237.83 153.53 237.84C152.29 237.85 151.41 238.49 151.27 238.34C151.13 238.19 151.35 238 151.74 237.71C152.266 237.337 152.895 237.134 153.54 237.13C154.179 237.124 154.805 237.316 155.33 237.68C155.71 238 155.84 238.24 155.77 238.31Z" fill="#263238"/>
<path d="M141.73 239.91C141.738 240.209 141.628 240.499 141.425 240.718C141.221 240.937 140.939 241.067 140.64 241.08C140.35 241.105 140.061 241.014 139.838 240.826C139.615 240.639 139.475 240.37 139.45 240.08C139.444 239.783 139.555 239.495 139.759 239.278C139.963 239.062 140.243 238.933 140.54 238.92C140.683 238.906 140.828 238.921 140.965 238.963C141.103 239.006 141.231 239.075 141.341 239.167C141.452 239.259 141.543 239.372 141.61 239.5C141.677 239.627 141.717 239.767 141.73 239.91Z" fill="#263238"/>
<path d="M143.7 238.68C143.56 238.83 142.7 238.2 141.46 238.21C140.22 238.22 139.34 238.86 139.2 238.71C139.06 238.56 139.27 238.37 139.66 238.08C140.19 237.707 140.822 237.504 141.47 237.5C142.106 237.494 142.728 237.686 143.25 238.05C143.63 238.34 143.77 238.61 143.7 238.68Z" fill="#263238"/>
<path d="M148.26 247.73C148.908 247.521 149.58 247.393 150.26 247.35C150.58 247.35 150.87 247.25 150.92 247.03C150.944 246.708 150.867 246.387 150.7 246.11L149.75 243.73C148.864 241.718 148.142 239.638 147.59 237.51C148.64 239.432 149.527 241.439 150.24 243.51L151.16 245.9C151.359 246.277 151.422 246.711 151.34 247.13C151.295 247.241 151.226 247.341 151.138 247.422C151.05 247.504 150.945 247.564 150.83 247.6C150.654 247.648 150.473 247.675 150.29 247.68C149.618 247.784 148.936 247.801 148.26 247.73V247.73Z" fill="#263238"/>
<path d="M149.28 262.26C145.079 262.394 140.924 261.355 137.28 259.26C137.28 259.26 140.28 265.34 149.14 264.4L149.28 262.26Z" fill="#AA6550"/>
<path d="M144.19 236.65C144.06 236.98 142.84 236.77 141.39 236.87C139.94 236.97 138.76 237.32 138.58 237.01C138.5 236.86 138.72 236.56 139.2 236.26C139.842 235.883 140.566 235.667 141.31 235.63C142.051 235.574 142.794 235.694 143.48 235.98C144 236.22 144.25 236.5 144.19 236.65Z" fill="#263238"/>
<path d="M155.26 234C155.04 234.28 154.19 234 153.18 234C152.17 234 151.3 234.21 151.1 233.92C150.9 233.63 151.1 233.5 151.51 233.23C152.013 232.905 152.602 232.738 153.201 232.75C153.8 232.763 154.381 232.954 154.87 233.3C155.23 233.62 155.35 233.91 155.26 234Z" fill="#263238"/>
<path d="M148.13 252.18C147.77 252.238 147.401 252.2 147.06 252.07L146.06 251.79C145.78 251.7 145.47 251.57 145.12 251.44C144.769 251.344 144.451 251.154 144.2 250.89C143.99 250.62 144.03 250.14 144.51 249.71C144.843 249.467 145.23 249.308 145.637 249.244C146.044 249.181 146.461 249.216 146.852 249.346C147.243 249.476 147.598 249.697 147.886 249.992C148.175 250.287 148.388 250.646 148.51 251.04C148.72 251.67 148.46 252.09 148.13 252.18Z" fill="#AA6550"/>
<path d="M148.3 252.07C148.18 252.16 147.58 250.93 146.14 250.56C145.259 250.434 144.361 250.533 143.53 250.85C143.53 250.85 143.69 250.53 144.18 250.28C144.827 249.957 145.57 249.879 146.27 250.06C146.973 250.238 147.587 250.664 148 251.26C148.31 251.71 148.36 252.05 148.3 252.07Z" fill="#263238"/>
<path d="M138.85 222.22C140.224 224.386 140.813 226.957 140.52 229.505C140.227 232.052 139.069 234.423 137.24 236.22C135.11 238.22 131.94 239.75 131.73 242.65C131.49 245.86 135.21 248.26 135.21 251.48C135.21 254.7 131.4 256.9 130.65 260.13C130.05 262.73 131.65 265.33 133.41 267.3C135.17 269.27 137.41 271.01 138.41 273.45C138.941 274.825 139.188 276.293 139.136 277.766C139.085 279.239 138.736 280.686 138.11 282.02C136.844 284.672 135.156 287.1 133.11 289.21C130.451 288.258 127.682 287.643 124.87 287.38C125.04 286.32 125.22 285.25 125.4 284.19C125.374 284.81 125.151 285.405 124.765 285.89C124.378 286.375 123.848 286.725 123.25 286.89C122.044 287.197 120.783 287.214 119.57 286.94C115.822 286.348 112.139 285.4 108.57 284.11C110.166 282.672 111.517 280.983 112.57 279.11C113.089 278.163 113.37 277.104 113.389 276.024C113.408 274.944 113.165 273.875 112.68 272.91C111.8 271.41 110.18 270.45 109.37 268.91C108.16 266.61 109.16 263.69 110.88 261.74C112.6 259.79 114.94 258.52 116.99 256.92C119.04 255.32 120.92 253.16 121.08 250.56C121.3 247.2 118.57 244.13 118.91 240.78C119.29 236.96 123.33 234.62 124.91 231.12C126.06 228.59 125.91 225.47 127.67 223.32C128.36 222.553 129.219 221.955 130.178 221.573C131.137 221.192 132.171 221.037 133.2 221.12C135.256 221.299 137.236 221.986 138.96 223.12" fill="#263238"/>
<path d="M150 263.22C148.4 264.1 148.49 266.55 149.47 268.1C150.45 269.65 152.02 270.76 152.99 272.32C153.81 273.744 154.096 275.414 153.797 277.03C153.499 278.646 152.635 280.103 151.36 281.14L155.2 282.59L156.04 282.12L158.4 280.78L157.29 283.51H159.75C161.057 283.537 162.345 283.197 163.469 282.53C164.593 281.862 165.507 280.893 166.109 279.733C166.71 278.573 166.975 277.267 166.872 275.964C166.77 274.661 166.305 273.412 165.53 272.36C164.53 270.96 162.95 269.85 162.6 268.16C162.19 266.11 163.74 264.26 164.49 262.32C165.087 260.681 165.149 258.895 164.667 257.219C164.186 255.543 163.186 254.062 161.81 252.99" fill="#263238"/>
<path d="M440.43 445C440.384 444.859 440.327 444.722 440.26 444.59C440.12 444.3 439.94 443.92 439.71 443.42C439.04 441.906 438.501 440.337 438.1 438.73C436.809 432.761 436.853 426.58 438.23 420.63C439.09 416.506 440.212 412.441 441.59 408.46C443.01 404.15 444.67 399.57 446.01 394.62C447.538 389.451 448.276 384.08 448.2 378.69C447.99 373.06 446.33 367.44 444.49 361.84C442.65 356.24 440.77 350.76 440.2 345.25C439.562 339.955 440.611 334.593 443.2 329.93C445.63 325.46 448.68 321.63 450.97 317.67C453.102 313.996 454.676 310.026 455.64 305.89C457.013 299.891 457.111 293.67 455.93 287.63C455.509 285.423 454.873 283.263 454.03 281.18C454.054 281.326 454.091 281.47 454.14 281.61C454.24 281.92 454.36 282.33 454.53 282.85C455.006 284.435 455.4 286.044 455.71 287.67C456.8 293.678 456.64 299.846 455.24 305.79C454.265 309.882 452.684 313.805 450.55 317.43C448.27 321.34 445.21 325.15 442.73 329.67C440.058 334.421 438.962 339.897 439.6 345.31C440.17 350.91 442.07 356.43 443.9 362.02C445.73 367.61 447.38 373.18 447.59 378.71C447.672 384.04 446.954 389.353 445.46 394.47C444.13 399.4 442.46 403.98 441.09 408.31C439.723 412.313 438.62 416.402 437.79 420.55C436.25 428.17 436.69 434.61 437.84 438.79C438.271 440.399 438.846 441.965 439.56 443.47L440.17 444.62C440.242 444.756 440.33 444.883 440.43 445Z" fill="#263238"/>
<path d="M447.91 321.54C447.91 321.54 452.55 306.7 444.22 298.01C444.155 297.939 444.072 297.888 443.98 297.862C443.888 297.837 443.79 297.837 443.699 297.865C443.607 297.892 443.524 297.944 443.461 298.016C443.398 298.088 443.356 298.176 443.34 298.27C442.9 300.72 442.34 308.18 447.91 321.54Z" fill="#2B66FF"/>
<path d="M445.13 303C445.138 303.922 445.242 304.84 445.44 305.74C445.74 307.63 446.1 309.84 446.5 312.29C446.9 314.74 447.24 316.95 447.5 318.83C447.573 319.747 447.738 320.655 447.99 321.54C448.071 320.62 448.041 319.693 447.9 318.78C447.75 317.09 447.45 314.78 447.03 312.19C446.61 309.6 446.17 307.33 445.8 305.67C445.674 304.758 445.449 303.863 445.13 303V303Z" fill="#263238"/>
<path d="M442.46 356.53C442.46 356.53 439.62 341.25 428.2 337.46C428.11 337.431 428.014 337.427 427.922 337.448C427.83 337.469 427.745 337.515 427.677 337.581C427.609 337.647 427.561 337.73 427.537 337.822C427.512 337.913 427.514 338.009 427.54 338.1C428.29 340.47 431.29 347.33 442.46 356.53Z" fill="#2B66FF"/>
<path d="M431.31 341.41C431.749 342.217 432.269 342.977 432.86 343.68L436.86 348.97C438.35 350.97 439.69 352.75 440.86 354.27C441.364 355.04 441.933 355.766 442.56 356.44C442.2 355.59 441.744 354.785 441.2 354.04C440.27 352.61 438.91 350.69 437.34 348.62C435.77 346.55 434.34 344.73 433.21 343.43C432.653 342.689 432.015 342.012 431.31 341.41Z" fill="#263238"/>
<path d="M445.54 394.88C445.54 394.88 447.27 379.43 437.44 372.49C437.362 372.435 437.271 372.403 437.177 372.396C437.082 372.389 436.987 372.409 436.903 372.452C436.818 372.495 436.747 372.561 436.698 372.641C436.648 372.722 436.621 372.815 436.62 372.91C436.65 375.4 437.53 382.83 445.54 394.88Z" fill="#2B66FF"/>
<path d="M439.27 377.17C439.451 378.074 439.729 378.956 440.1 379.8C440.76 381.59 441.53 383.7 442.38 386.02C443.23 388.34 444 390.45 444.65 392.25C444.902 393.133 445.236 393.99 445.65 394.81C445.558 393.892 445.353 392.988 445.04 392.12C444.57 390.49 443.83 388.25 442.93 385.82C442.03 383.39 441.15 381.21 440.48 379.65C440.168 378.782 439.762 377.95 439.27 377.17V377.17Z" fill="#263238"/>
<path d="M436.94 433.46C436.94 433.46 438.11 417.95 428.04 411.37C427.961 411.315 427.869 411.284 427.773 411.279C427.678 411.275 427.583 411.297 427.499 411.344C427.416 411.391 427.347 411.461 427.301 411.545C427.255 411.629 427.234 411.724 427.24 411.82C427.36 414.3 428.5 421.7 436.94 433.46Z" fill="#2B66FF"/>
<path d="M430 416C430.227 416.894 430.539 417.765 430.93 418.6C431.65 420.37 432.5 422.44 433.44 424.73C434.38 427.02 435.21 429.11 435.93 430.87C436.205 431.749 436.57 432.597 437.02 433.4C436.888 432.485 436.649 431.589 436.31 430.73C435.78 429.12 434.96 426.91 433.97 424.51C432.98 422.11 432.03 419.97 431.3 418.43C430.964 417.572 430.527 416.756 430 416V416Z" fill="#263238"/>
<path d="M454.58 308.5C454.58 308.5 468.36 301.3 468.63 289.27C468.632 289.175 468.607 289.081 468.559 288.999C468.511 288.917 468.442 288.85 468.358 288.805C468.275 288.759 468.18 288.738 468.086 288.742C467.991 288.747 467.899 288.777 467.82 288.83C465.77 290.25 460.1 295.12 454.58 308.5Z" fill="#2B66FF"/>
<path d="M465.77 293.41C465.119 294.061 464.542 294.782 464.05 295.56L460.16 300.93C458.71 302.93 457.39 304.75 456.26 306.29C455.676 307 455.151 307.755 454.69 308.55C455.402 307.963 456.04 307.291 456.59 306.55C457.68 305.24 459.12 303.38 460.59 301.27C462.06 299.16 463.43 297.27 464.35 295.79C464.905 295.049 465.381 294.251 465.77 293.41Z" fill="#263238"/>
<path d="M439.78 340.37C439.78 340.37 454 334 455 322C455.011 321.904 454.995 321.807 454.953 321.72C454.912 321.633 454.846 321.56 454.765 321.509C454.683 321.457 454.589 321.43 454.492 321.43C454.396 321.431 454.301 321.458 454.22 321.51C452.06 322.83 446.1 327.35 439.78 340.37Z" fill="#2B66FF"/>
<path d="M451.86 326C451.18 326.602 450.564 327.273 450.02 328L445.81 333.12L441.6 338.24C440.966 338.907 440.393 339.63 439.89 340.4C440.629 339.851 441.3 339.216 441.89 338.51C443.06 337.27 444.61 335.51 446.25 333.51C447.89 331.51 449.33 329.64 450.33 328.27C450.928 327.577 451.442 326.815 451.86 326V326Z" fill="#263238"/>
<path d="M447.94 375.91C447.94 375.91 457.69 363.8 453.12 352.67C453.085 352.581 453.026 352.504 452.949 352.447C452.873 352.389 452.782 352.354 452.687 352.345C452.592 352.335 452.497 352.352 452.411 352.394C452.325 352.435 452.252 352.5 452.2 352.58C450.89 354.7 447.65 361.45 447.94 375.91Z" fill="#2B66FF"/>
<path d="M452.15 357.6C451.824 358.46 451.586 359.352 451.44 360.26C451.03 362.13 450.56 364.32 450.03 366.74L448.61 373.21C448.35 374.092 448.169 374.996 448.07 375.91C448.489 375.09 448.802 374.219 449 373.32C449.48 371.68 450.06 369.4 450.6 366.87C451.14 364.34 451.6 362.02 451.84 360.34C452.044 359.441 452.148 358.522 452.15 357.6V357.6Z" fill="#263238"/>
<path d="M438.29 417.74C438.29 417.74 452.37 411.16 453.17 399.15C453.177 399.056 453.158 398.962 453.115 398.878C453.071 398.794 453.006 398.724 452.925 398.675C452.844 398.626 452.751 398.601 452.657 398.602C452.562 398.603 452.47 398.63 452.39 398.68C450.28 400 444.4 404.62 438.29 417.74Z" fill="#2B66FF"/>
<path d="M450.13 403.16C449.46 403.789 448.854 404.482 448.32 405.23L444.21 410.43C442.66 412.37 441.27 414.12 440.07 415.61C439.452 416.288 438.896 417.021 438.41 417.8C439.152 417.243 439.823 416.599 440.41 415.88C441.56 414.62 443.08 412.83 444.68 410.79C446.28 408.75 447.68 406.87 448.68 405.48C449.247 404.762 449.733 403.984 450.13 403.16V403.16Z" fill="#263238"/>
<path d="M410.24 356.62C410.24 356.62 410.24 356.74 410.24 356.96C410.24 357.18 410.24 357.56 410.24 357.96C410.29 358.9 410.34 360.16 410.41 361.73C410.59 365.05 410.85 369.67 411.15 375.2C412.15 380.82 415.02 387.06 418.87 393.11C421.69 397.57 424.65 401.63 427.21 405.4C429.529 408.693 431.614 412.145 433.45 415.73C434.662 418.159 435.643 420.697 436.38 423.31C436.63 424.24 436.81 424.96 436.92 425.46C436.961 425.717 437.032 425.969 437.13 426.21C437.113 425.948 437.08 425.688 437.03 425.43C436.96 424.93 436.81 424.19 436.6 423.25C435.937 420.596 435.005 418.016 433.82 415.55C432.028 411.917 429.965 408.424 427.65 405.1C425.12 401.3 422.17 397.24 419.36 392.8C415.54 386.8 412.69 380.64 411.64 375.1C411.25 369.57 410.92 364.96 410.69 361.65C410.56 360.08 410.46 358.82 410.39 357.88C410.39 357.49 410.31 357.16 410.29 356.88C410.281 356.792 410.264 356.705 410.24 356.62V356.62Z" fill="#263238"/>
<path d="M418.62 392C418.62 392 412.62 377.64 420.16 368.23C420.218 368.154 420.296 368.095 420.386 368.061C420.475 368.027 420.572 368.019 420.666 368.038C420.76 368.057 420.847 368.102 420.917 368.168C420.986 368.233 421.036 368.317 421.06 368.41C421.73 370.79 423 378.17 418.62 392Z" fill="#2B66FF"/>
<path d="M419.71 373.22C419.453 374.106 419.295 375.019 419.24 375.94C419.03 377.62 418.79 379.94 418.6 382.55C418.41 385.16 418.33 387.48 418.33 389.19C418.27 390.11 418.327 391.034 418.5 391.94C418.66 391.035 418.741 390.119 418.74 389.2C418.87 387.29 419.02 385.06 419.18 382.59C419.34 380.12 419.51 377.88 419.65 375.97C419.761 375.058 419.781 374.136 419.71 373.22V373.22Z" fill="#263238"/>
<g opacity="0.3">
<path d="M418.62 392C418.62 392 412.62 377.64 420.16 368.23C420.218 368.154 420.296 368.095 420.386 368.061C420.475 368.027 420.572 368.019 420.666 368.038C420.76 368.057 420.847 368.102 420.917 368.168C420.986 368.233 421.036 368.317 421.06 368.41C421.73 370.79 423 378.17 418.62 392Z" fill="black"/>
</g>
<path d="M437.1 426.58C437.1 426.58 432.32 411.78 440.56 403.01C440.625 402.943 440.708 402.895 440.798 402.87C440.889 402.846 440.984 402.847 441.075 402.873C441.165 402.898 441.246 402.948 441.311 403.016C441.375 403.084 441.42 403.168 441.44 403.26C441.91 405.71 442.54 413.17 437.1 426.58Z" fill="#2B66FF"/>
<path d="M439.7 408C439.371 408.862 439.14 409.757 439.01 410.67C438.66 412.33 438.24 414.67 437.84 417.2C437.44 419.73 437.17 422.1 437.03 423.8C436.916 424.716 436.916 425.644 437.03 426.56C437.26 425.671 437.414 424.765 437.49 423.85C437.77 421.96 438.1 419.74 438.49 417.29C438.88 414.84 439.2 412.63 439.49 410.74C439.653 409.836 439.724 408.918 439.7 408V408Z" fill="#263238"/>
<g opacity="0.3">
<path d="M437.1 426.58C437.1 426.58 432.32 411.78 440.56 403.01C440.625 402.943 440.708 402.895 440.798 402.87C440.889 402.846 440.984 402.847 441.075 402.873C441.165 402.898 441.246 402.948 441.311 403.016C441.375 403.084 441.42 403.168 441.44 403.26C441.91 405.71 442.54 413.17 437.1 426.58Z" fill="black"/>
</g>
<path d="M411 374.43C411 374.43 398.26 365.51 399.55 353.55C399.557 353.455 399.591 353.364 399.647 353.287C399.704 353.21 399.781 353.151 399.869 353.115C399.958 353.08 400.054 353.07 400.148 353.087C400.242 353.103 400.329 353.146 400.4 353.21C402.28 354.88 407.28 360.45 411 374.43Z" fill="#2B66FF"/>
<g opacity="0.3">
<path d="M411 374.43C411 374.43 398.26 365.51 399.55 353.55C399.557 353.455 399.591 353.364 399.647 353.287C399.704 353.21 399.781 353.151 399.869 353.115C399.958 353.08 400.054 353.07 400.148 353.087C400.242 353.103 400.329 353.146 400.4 353.21C402.28 354.88 407.28 360.45 411 374.43Z" fill="black"/>
</g>
<path d="M401.88 358C402.138 358.883 402.494 359.735 402.94 360.54C403.66 362.08 404.72 364.18 405.94 366.46C407.16 368.74 408.36 370.78 409.27 372.21C409.72 373.018 410.264 373.769 410.89 374.45C410.548 373.595 410.126 372.775 409.63 372C408.71 370.33 407.63 368.36 406.45 366.19L403.29 360.36C402.901 359.528 402.428 358.737 401.88 358V358Z" fill="#263238"/>
<path d="M432 411.91C432 411.91 416.64 409.51 412.53 398.21C412.495 398.122 412.485 398.025 412.502 397.932C412.518 397.839 412.561 397.752 412.624 397.681C412.688 397.61 412.77 397.559 412.861 397.532C412.952 397.505 413.049 397.505 413.14 397.53C415.5 398.21 422.44 401 432 411.91Z" fill="#2B66FF"/>
<g opacity="0.3">
<path d="M432 411.91C432 411.91 416.64 409.51 412.53 398.21C412.495 398.122 412.485 398.025 412.502 397.932C412.518 397.839 412.561 397.752 412.624 397.681C412.688 397.61 412.77 397.559 412.861 397.532C412.952 397.505 413.049 397.505 413.14 397.53C415.5 398.21 422.44 401 432 411.91Z" fill="black"/>
</g>
<path d="M416.52 401.2C417.138 401.884 417.832 402.495 418.59 403.02C419.92 404.08 421.79 405.5 423.9 407.02C426.01 408.54 427.98 409.83 429.43 410.71C430.188 411.24 431.007 411.676 431.87 412.01C431.184 411.393 430.441 410.844 429.65 410.37L424.24 406.55L418.84 402.7C418.118 402.125 417.341 401.623 416.52 401.2V401.2Z" fill="#263238"/>
<path d="M450.14 440.18L445.73 469.08L428.14 469.05L422.21 440.18H450.14Z" fill="#455A64"/>
<path d="M434.08 449.46C434.559 448.739 434.838 447.904 434.89 447.04C434.942 446.557 434.858 446.069 434.648 445.631C434.438 445.192 434.11 444.822 433.7 444.56C433.234 444.325 432.712 444.223 432.191 444.265C431.671 444.308 431.172 444.493 430.75 444.8C429.876 445.44 429.276 446.387 429.07 447.45C428.836 448.523 428.762 449.625 428.85 450.72C428.905 451.861 429.145 452.986 429.56 454.05C429.98 455.168 430.667 456.167 431.56 456.96C432.502 457.795 433.694 458.295 434.95 458.38C436.197 458.407 437.423 458.058 438.47 457.38C439.473 456.738 440.362 455.934 441.1 455C441.854 454.102 442.318 452.997 442.43 451.83C442.474 451.256 442.384 450.68 442.167 450.148C441.95 449.615 441.612 449.14 441.18 448.76C440.733 448.431 440.201 448.239 439.648 448.205C439.095 448.171 438.543 448.298 438.06 448.57C437.6 448.801 437.199 449.133 436.887 449.542C436.575 449.951 436.361 450.426 436.26 450.93C436.129 451.828 436.272 452.744 436.67 453.559C437.067 454.375 437.702 455.051 438.49 455.5C439.787 456.207 441.295 456.427 442.74 456.12C443.8 455.895 444.814 455.493 445.74 454.93C446.329 454.585 446.897 454.204 447.44 453.79C447.639 453.657 447.82 453.499 447.98 453.32C447.773 453.439 447.573 453.569 447.38 453.71C446.99 453.96 446.38 454.35 445.65 454.77C444.716 455.291 443.702 455.656 442.65 455.85C441.283 456.107 439.869 455.881 438.65 455.21C437.938 454.787 437.368 454.162 437.012 453.414C436.656 452.666 436.53 451.829 436.65 451.01C436.744 450.568 436.937 450.154 437.214 449.797C437.491 449.44 437.845 449.151 438.25 448.95C438.66 448.719 439.129 448.612 439.599 448.64C440.069 448.668 440.52 448.832 440.9 449.11C441.273 449.446 441.564 449.863 441.75 450.33C441.936 450.796 442.011 451.3 441.97 451.8C441.857 452.874 441.421 453.889 440.72 454.71C440.015 455.594 439.171 456.358 438.22 456.97C437.256 457.603 436.124 457.934 434.97 457.92C433.823 457.835 432.735 457.378 431.87 456.62C431.024 455.88 430.369 454.947 429.96 453.9C429.56 452.881 429.327 451.804 429.27 450.71C429.18 449.663 429.244 448.608 429.46 447.58C429.634 446.617 430.167 445.756 430.95 445.17C431.306 444.905 431.728 444.741 432.17 444.697C432.612 444.653 433.058 444.73 433.46 444.92C433.806 445.149 434.083 445.469 434.259 445.845C434.435 446.22 434.505 446.637 434.46 447.05C434.419 447.848 434.168 448.621 433.73 449.29C432.931 450.443 431.78 451.306 430.45 451.75C429.45 452.102 428.385 452.228 427.33 452.12C426.426 452.012 425.547 451.752 424.73 451.35C424.73 451.35 424.73 451.35 424.87 451.46C425.022 451.555 425.179 451.642 425.34 451.72C425.969 452.028 426.645 452.228 427.34 452.31C428.429 452.457 429.538 452.351 430.58 452C431.983 451.56 433.204 450.676 434.06 449.48" fill="#263238"/>
</svg>
